<?xml version="1.0" encoding="utf-8"?>
<!-- Generator: Adobe Illustrator 22.1.0, SVG Export Plug-In . SVG Version: 6.00 Build 0)  -->
<svg version="1.1" id="Layer_1" xmlns="http://www.w3.org/2000/svg" xmlns:xlink="http://www.w3.org/1999/xlink" x="0px" y="0px"
	 viewBox="0 0 611.5 395.2" style="enable-background:new 0 0 611.5 395.2;" xml:space="preserve">
<style type="text/css">
	.st0{fill:#FFFFFF;}
	.st1{fill:#0F6CB2;}
</style>
<title>BlackTie LogoGuide</title>
<path d="M574.2,193.9L424.6,43.8c-2.3-2.3-5.9-2.3-8.2,0L304.8,154.9L193.6,43.4c-2.3-2.3-5.9-2.3-8.2,0L35.2,193
	c-2.3,2.3-2.3,5.9,0,8.2l42.9,43.1l17.1,17.1l2.7,2.8l5.8,5.9l1.3,1.3l1.3,1.3l6.4,6.4l11.4,11.4l60.7,60.9c2.3,2.3,5.9,2.3,8.2,0
	l75.7-75.5l71.1-0.4l0,0l76,76.2c2.3,2.3,5.9,2.3,8.2,0l0.7-0.7l98.4-98.1l8.1-8.1l43-42.8C576.5,199.9,576.5,196.2,574.2,193.9z"/>
<path class="st0" d="M131,194.9c4.5-1.6,7.8-5.4,7.8-12.1c0-9.4-7.2-14.6-18.3-14.6l-24.4,0l-0.1,56.3l23.7,0c14,0,21.5-6,21.5-16.3
	C141.2,200.2,136.2,196.4,131,194.9z M110.6,180.1l7.9,0c4.1,0,5.5,2,5.5,5.1s-1.6,5-5.7,5l-7.8,0L110.6,180.1z M119.5,212.7l-9,0
	l0-11.7l9,0c4.8,0,6.5,2.2,6.5,5.8S124.4,212.7,119.5,212.7z"/>
<path class="st0" d="M163.7,211.9l0.1-43.6l-15.1,0l-0.1,56.3l39,0.1l0-12.7L163.7,211.9z"/>
<path class="st0" d="M221.5,167.4c-0.2-0.6-0.8-0.6-1,0l-27.5,57.2l14.7,0l2.8-6.8l19.6,0l3,6.8l15.6,0L221.5,167.4z M215.3,207
	l5.1-11.9l5.1,11.9L215.3,207z"/>
<path class="st0" d="M290.6,204.7c-0.4,0.7-0.7,1.3-1.2,1.9c-0.7,1-1.5,2-2.5,2.8c-2.2,1.9-5.3,3.1-9.6,3.1c-0.1,0-0.2,0-0.4,0
	c-8.4-0.2-13.5-7.1-13.5-15.8c0-8.9,5.1-15.7,13.4-15.7c0.6,0,1.2,0,1.7,0.1c3.5,0.2,6.8,1.7,9.2,4.3c0.7,0.7,1.3,1.5,1.8,2.3l2-1.4
	l9.4-6.3c-0.4-0.6-0.8-1.2-1.3-1.7c-0.7-0.9-1.4-1.7-2.2-2.5c-2.3-2.3-5-4.2-8.1-5.5c-4-1.7-8.4-2.5-12.8-2.4
	c-15.7-0.1-28.4,12.6-28.5,28.3c0,0.2,0,0.3,0,0.5c0,17,13.4,28.9,29.2,28.9c3.7,0.1,7.4-0.5,11-1.6c3-1,5.8-2.7,8.2-4.8
	c0.9-0.8,1.8-1.7,2.6-2.7c1.1-1.3,2.1-2.8,3-4.2L290.6,204.7z"/>
<path class="st0" d="M343.2,193.1l18.8-24.4l-16.3,0L334,184.3l-3.6,4.8l-2.1,2.9l0-5l0-8.4l0-9.9l-9.9,0l-5.2,0l0,3.3l0,9.8l0,31.8
	l0,10.4v1l6.9,0l8.1,0l0-8.1l0-6.5l4.7-5.8l3,4.6l10.4,15.9l17.8,0L343.2,193.1z"/>
<path class="st0" d="M391.8,168.7l0,12.7l14.9,0l-0.1,43.6l15.1,0l0.1-43.6l14.9,0l0-12.7L391.8,168.7z"/>
<path class="st0" d="M446,168.8l-0.1,56.3l15.1,0l0.1-56.3L446,168.8z"/>
<path class="st0" d="M488.4,212.5l0-9.7l20.4,0l0-12l-20.4,0l0-9.3l24.4,0l0-12.7l-39.5-0.1l-0.1,56.3l40.6,0.1l0-12.7L488.4,212.5z
	"/>
<path d="M470.6,338.7c1.1-0.7,1.7-1.9,1.6-3.1c0-1.8-1.7-3.6-4.5-3.6h-4.4v10.3h3.3v-2.9h0.8l1.4,2.9h3.5L470.6,338.7z M467.7,336.8
	h-1v-1.9h1c0.6,0,1.1,0.2,1.1,0.9C468.8,336.6,468.3,336.8,467.7,336.8L467.7,336.8z M470.6,338.7c1.1-0.7,1.7-1.9,1.6-3.1
	c0-1.8-1.7-3.6-4.5-3.6h-4.4v10.3h3.3v-2.9h0.8l1.4,2.9h3.5L470.6,338.7z M467.7,336.8h-1v-1.9h1c0.6,0,1.1,0.2,1.1,0.9
	C468.8,336.6,468.3,336.8,467.7,336.8L467.7,336.8z M467.4,327.6c-0.4,0-0.9,0-1.3,0.1c-4.4,0.5-8,4-8.4,8.4c0,0.4-0.1,0.8-0.1,1.2
	c-0.1,5.4,4.2,9.9,9.6,10c5.4,0.1,9.9-4.2,10-9.6c0.1-5.4-4.2-9.9-9.6-10C467.5,327.6,467.5,327.6,467.4,327.6z M467.4,344.7
	c-4.2,0-7.5-3.4-7.5-7.5c0-4.1,3.4-7.5,7.5-7.5c4.2,0,7.5,3.4,7.5,7.5C474.9,341.4,471.5,344.7,467.4,344.7
	C467.4,344.7,467.4,344.7,467.4,344.7z M472.2,335.6c0-1.8-1.7-3.6-4.5-3.6h-4.4v10.3h3.3v-2.9h0.8l1.4,2.9h3.5l-1.7-3.6
	C471.6,338.1,472.3,336.9,472.2,335.6L472.2,335.6z M467.7,336.8h-1v-1.9h1c0.6,0,1.1,0.2,1.1,0.9
	C468.8,336.6,468.3,336.8,467.7,336.8L467.7,336.8z"/>
<path class="st1" d="M540.7,265.1c-0.1,14.4-11.7,26-26.1,26h0l-29.5,0l-14.4,0h-3.9l-93.4-0.1l-5.2,0l-13,0L254,290.7l-7.9,0
	l-10.3,0l-93.3-0.1l-7.8,0l-10.4,0l-29.4,0c-14.4-0.1-26.1-11.8-26-26.2c0-10.4,6.3-19.8,15.9-23.9c1.9-0.8,4-1.4,6.1-1.8
	c1.3-0.2,2.7-0.3,4.1-0.3h0.1l193.2,0.3l10.4,0h4.6l3.3,0l9.7,0l5.2,0l193.4,0.3c1.4,0,2.7,0.1,4,0.3c1.1,0.2,2.1,0.4,3.2,0.7
	C533,243.3,540.7,253.5,540.7,265.1L540.7,265.1z"/>
<g>
	<path class="st0" d="M112.3,268.2c-0.4-2.6-2-4.5-5.8-5.9c-0.2-0.1-0.3-0.1-0.5-0.2l-3.2-1.1c-1.2-0.4-1.7-0.9-1.7-1.8
		c0-0.6,0.4-1.2,1-1.4c0.4-0.2,0.9-0.3,1.4-0.2c1.6-0.1,3.1,0.6,4.2,1.7l1.8-1.9l1.8-1.9c-1.8-1.9-4.2-3-6.8-3.1
		c-0.4,0-0.9-0.1-1.4-0.1c-1.8,0-3.6,0.5-5.1,1.4c-2,1.2-3.1,3.4-3.1,5.7c0,0.6,0.1,1.3,0.2,1.9c0.6,2.6,2.6,4.2,5.1,5.1
		c0.2,0.1,0.4,0.1,0.6,0.2l2.8,1c1.6,0.5,2.4,1,2.4,2c0,0.7-0.4,1.3-1,1.6c-0.6,0.2-1.3,0.4-2,0.3c-2,0-3.9-1-5-2.6l-4.7,3.5
		c1.5,2,4.6,4.4,9.9,4.4c2.1,0.1,4.1-0.4,5.9-1.4c2.1-1.3,3.3-3.7,3.1-6.2C112.4,269.1,112.4,268.6,112.3,268.2z"/>
	<path class="st0" d="M131.3,263.1l8-10.4h-6.9l-7.4,9.9v-9.9h-6.4v24h6.4v-6.2l2-2.5l5.7,8.7h7.6L131.3,263.1z"/>
	<path class="st0" d="M145.8,252.7v24h6.4v-23.9L145.8,252.7z"/>
	<path class="st0" d="M186.2,268.2c2.8-1.2,4.5-4,4.4-7c0-4.9-3.4-8.5-9.5-8.5h-9.7v23.9h6.4v-7.5h2.2l4.2,7.5h6.9L186.2,268.2z
		 M180.8,264.3h-3v-6.1h3c2.2,0,3.4,1.1,3.4,3.1S183,264.3,180.8,264.3z"/>
	<path class="st0" d="M203.8,271.3v-4.1h8.7v-5.1h-8.7v-3.9h10.4v-5.4h-16.8v23.9h17.3v-5.4H203.8z"/>
	<path class="st0" d="M236.5,252.7v12l-15-12.4c-0.4-0.3-0.5-0.1-0.5,0.1v24.3h6v-11.9l15,12.4c0.4,0.3,0.5,0.2,0.5-0.1v-24.3H236.5
		z"/>
	<path class="st0" d="M248.5,252.7v5.4h6.3v18.6h6.4v-18.6h6.3v-5.4L248.5,252.7z"/>
	<path class="st0" d="M284.2,260.6l-2.6-5.4l-1.4-2.9c-0.1-0.2-0.3-0.2-0.4,0l-4.3,9l-7.2,15.1l-0.1,0.2h6.3l1.2-2.9h8.4l1.3,2.9
		h6.6L284.2,260.6z M277.6,269.1l1.4-3.4l0.7-1.7l0.3,0.7l1.9,4.4H277.6z"/>
	<path class="st0" d="M303.7,271.3v-18.6h-6.4v24h16.6v-5.4H303.7z"/>
	<path class="st0" d="M341,252.7h-9.3v24h9.3c3.5,0.1,6.8-1.3,9.2-3.8c0.9-0.9,1.5-2,2-3.2c0.6-1.6,0.9-3.3,0.9-5
		C353.1,257.3,347.9,252.7,341,252.7z M346.5,264.7c0,1.3-0.3,2.5-0.9,3.7c-1.1,1.9-3.2,3-5.4,2.9h-2.1v-13.1h2.1c0.2,0,0.3,0,0.5,0
		c3.4,0.2,5.5,2.4,5.8,5.8C346.5,264.2,346.5,264.5,346.5,264.7z"/>
	<path class="st0" d="M365.5,271.3v-4.1h8.7v-5.1h-8.7v-3.9h10.4v-5.4h-16.8v23.9h17.3v-5.4H365.5z"/>
	<path class="st0" d="M389.1,271.3v-18.6h-6.4v24h16.6v-5.4H389.1z"/>
	<path class="st0" d="M405.5,252.7v24h6.4v-23.9L405.5,252.7z"/>
	<path class="st0" d="M433.9,252.7l-4.8,11.2l-4.9-11.2h-6.8l11.3,24.2c0.1,0.2,0.3,0.2,0.4,0l11.3-24.2L433.9,252.7z"/>
	<path class="st0" d="M452.2,271.3v-4.1h8.7v-5.1h-8.7v-3.9h10.4v-5.4h-16.8v23.9h17.3v-5.4H452.2z"/>
	<path class="st0" d="M487.6,274.1l-1.4-2.5l-2-3.4c2.8-1.2,4.5-4,4.4-7c0-4.9-3.4-8.5-9.5-8.5h-9.7v23.9h6.4v-7.5h2.2l3.8,6.8
		l0.4,0.7h6.9L487.6,274.1z M478.8,264.3h-3v-6.1h3c2.2,0,3.3,1.1,3.3,3.1S480.9,264.3,478.8,264.3z"/>
	<path class="st0" d="M508.1,252.7l-1.1,2l-3.6,6.7l-1.1-2l-1.4-2.5l-2.3-4.2h-7l4.9,8.6l1.4,2.5l2.1,3.6v9.3h6.4v-9.4l8.4-14.5
		L508.1,252.7z"/>
</g>
<path class="st0" d="M191.8,63.2c-1.2-1.2-3.2-1.2-4.4,0l-88.6,88.4c-1.2,1.2-0.9,1.7,0.7,1l54.4-22.8c1.8-0.6,3.8-0.4,5.5,0.6
	l28.1,19.8c1.5,1,3.5,0.9,5-0.2l23.1-19c1.6-1.2,3.6-1.6,5.5-1.3l46.1,11.2c1.7,0.4,2.1-0.3,0.8-1.5L191.8,63.2z"/>
<path class="st0" d="M416.6,63.2c1.2-1.2,3.2-1.2,4.5,0l88.6,88.4c1.2,1.2,0.9,1.7-0.7,1l-54.4-22.8c-1.8-0.6-3.8-0.4-5.5,0.6
	L421,150.2c-1.5,1-3.5,0.9-5-0.2l-23.1-19c-1.6-1.2-3.6-1.6-5.5-1.3l-46.1,11.2c-1.7,0.4-2.1-0.3-0.8-1.5L416.6,63.2z"/>
</svg>
