<svg id="Layer_1" data-name="Layer 1" xmlns="http://www.w3.org/2000/svg" viewBox="0 0 611.484 395.175"><defs><style>.cls-1{fill:#fff;}.cls-2{fill:#0f6cb2;}</style></defs><title>BlackTie LogoGuide</title><path class="cls-1" d="M574.232,193.929,424.552,43.759a5.83,5.83,0,0,0-8.23-.02l-111.55,111.19L193.582,43.379a5.818,5.818,0,0,0-8.22-.02L35.182,193.039a5.843,5.843,0,0,0-.01,8.23l42.91,43.06a26.061,26.061,0,0,0,16.6,46.15l29.45.05,60.72,60.91a5.83,5.83,0,0,0,8.23.02l60.93-60.73,101.07.15,60.74,60.94a5.818,5.818,0,0,0,8.22.02L485,291.079l29.53.05h.05A26.064,26.064,0,0,0,531.242,245l42.98-42.84A5.843,5.843,0,0,0,574.232,193.929Zm-123.92,143.16a16.718,16.718,0,0,0,.9,5.46l6.46-6.45,8.43-8.4,6.71-6.69a17.011,17.011,0,0,0-22.5,16.08Z"/><rect x="85.315" y="92.516" width="210.308" height="210.308" transform="translate(-83.978 192.126) rotate(-44.906)"/><rect x="317.553" y="96.093" width="203.908" height="203.908" transform="translate(263.631 -238.887) rotate(45.094)"/><path d="M343.262,193.549l-9.25-9.28-5.74-5.76-9.87-9.9-4.51-4.52-2.36-2.37-6.76-6.79L193.582,43.379a5.818,5.818,0,0,0-8.22-.02L35.182,193.039a5.843,5.843,0,0,0-.01,8.23l42.91,43.06,17.08,17.13,5.13,5.14,4.77,4.79,4.23,4.24,14.84,14.9,60.72,60.91a5.83,5.83,0,0,0,8.23.02l60.93-60.73,14.3-14.25,10.77-10.74,1-1,4.16-4.14,20.39-20.33,1.66-1.65,4.87-4.85,2.63-2.62,6.27-6.26,8.15-8.12,7.74-7.71,7.3-7.28A5.833,5.833,0,0,0,343.262,193.549Zm-41.23,31.06-6.52,6.5-7.5,7.48-26.74,26.65-6.41,6.39-19.13,19.07-46.74,46.58-46.58-46.73L124.922,273l-6.41-6.43-9.03-9.05-4.99-5.01-13.85-13.9-41.3-41.43,140.11-139.64,106.16,106.51,6.77,6.79,2.36,2.37,8.47,8.5,15.88,15.93-15.93,15.88-8.5,8.47Zm0,0-6.52,6.5-7.5,7.48,10.35.02,2.31-2.31,6.53-6.51Z"/><path d="M574.232,193.929,424.552,43.759a5.83,5.83,0,0,0-8.23-.02l-111.55,111.19-4.24,4.22-4.92,4.9-6.23,6.22-10.8,10.76-12.43,12.39a5.833,5.833,0,0,0-.01,8.23l10.8,10.83,11.41,11.46,7.16,7.17,5.16,5.19,2.31,2.31,1.65,1.66,27.07,27.15,9.23,9.26,14.15,14.2,60.74,60.94a5.818,5.818,0,0,0,8.22.02L485,291.079l15.09-15.04,6.41-6.39L531.242,245l42.98-42.84A5.843,5.843,0,0,0,574.232,193.929Zm-73.28,63-4.38,4.36-10.37,10.34-4.38,4.36-15.11,15.07-46.76,46.6-46.6-46.75-14.18-14.23-.08-.08-6.91-6.93-5.68-5.7-5.77-5.79-5.43-5.45-14.04-14.09-7.47-7.49-3.96-3.98-5.17-5.18-5.53-5.54-9.76-9.8-9.06-9.09,11.27-11.23,8.09-8.06,5.07-5.06,4.92-4.91,4.23-4.21,106.52-106.17,139.64,140.1-41.38,41.25Zm-187.16-25.78-3.96-3.98-5.17-5.18-2.63,2.62,5.17,5.18,3.96,3.98,4.85,4.86,5.25.01Zm-24.21-43.47a17,17,0,0,0-1.78-2.31l-12.48,12.44,11.57,11.61a13.629,13.629,0,0,0,2.48-2.77l-9.06-9.09,11.27-11.23Z"/><path class="cls-1" d="M130.992,194.909c4.47-1.64,7.79-5.36,7.8-12.07.02-9.43-7.17-14.58-18.35-14.59l-24.41-.04-.1,56.28,23.67.04c13.99.02,21.53-6.01,21.55-16.27C141.162,200.229,136.2,196.409,130.992,194.909Zm-20.42-14.85,7.95.02c4.14,0,5.54,1.99,5.54,5.14s-1.59,5.04-5.72,5.04l-7.78-.01Zm8.97,32.63-9.02-.01.02-11.67,9.02.01c4.8.01,6.53,2.16,6.53,5.8S124.422,212.7,119.542,212.689Z"/><path class="cls-1" d="M163.742,211.949l.07-43.62-15.07-.02-.09,56.28,38.98.06.02-12.66Z"/><path class="cls-1" d="M221.542,167.439c-.25-.58-.75-.58-1,0l-27.49,57.23,14.74.02,2.82-6.78,19.62.03,2.97,6.8,15.56.02Zm-6.27,39.55,5.06-11.91,5.12,11.93Z"/><path class="cls-1" d="M290.552,204.729a18.609,18.609,0,0,1-1.18,1.92,13.629,13.629,0,0,1-2.48,2.77c-2.24,1.9-5.26,3.08-9.6,3.07-.12,0-.23,0-.35-.01-8.4-.2-13.46-7.09-13.45-15.83.02-8.85,5.08-15.71,13.36-15.7a16.067,16.067,0,0,1,1.73.08,13.4,13.4,0,0,1,9.22,4.34,17,17,0,0,1,1.78,2.31l2-1.35,9.35-6.33c-.4-.59-.82-1.17-1.26-1.73a26.331,26.331,0,0,0-2.22-2.52,25.3,25.3,0,0,0-8.07-5.48,32.264,32.264,0,0,0-12.76-2.4,28.39,28.39,0,0,0-28.52,28.76c-.03,16.97,13.44,28.91,29.25,28.93a33.49,33.49,0,0,0,11-1.62,23.324,23.324,0,0,0,8.22-4.81,26.1,26.1,0,0,0,2.56-2.68,32.981,32.981,0,0,0,2.99-4.25Z"/><path class="cls-1" d="M343.232,193.069l18.75-24.39-16.31-.02-11.66,15.61-3.62,4.83-2.14,2.87.01-5.01.01-8.45.02-9.88-9.89-.02-5.17-.01-.01,3.28-.01,9.83-.05,31.81-.02,10.35v1.01l6.92.01,8.14.02.01-8.14.01-6.51,4.73-5.79,3,4.59,10.38,15.88,17.79.03Z"/><path class="cls-1" d="M391.832,168.719l-.02,12.67,14.9.02-.07,43.62,15.06.02.07-43.61,14.9.02.02-12.66Z"/><path class="cls-1" d="M446,168.819l-.09,56.28,15.06.03.1-56.28Z"/><path class="cls-1" d="M488.352,212.519l.01-9.68,20.36.03.02-12-20.36-.03.02-9.27,24.41.04.02-12.67-39.47-.06-.1,56.28,40.64.07.02-12.67Z"/><path class="cls-1" d="M191.791,63.2a3.155,3.155,0,0,0-4.45,0L98.735,151.6c-1.225,1.222-.922,1.675.674,1.006L153.826,129.8a6.351,6.351,0,0,1,5.475.594l28.147,19.8a4.372,4.372,0,0,0,5-.191l23.056-19a7.115,7.115,0,0,1,5.486-1.259l46.061,11.173c1.682.408,2.057-.26.835-1.485Z"/><path class="cls-1" d="M416.633,63.2a3.155,3.155,0,0,1,4.45,0L509.69,151.6c1.225,1.222.922,1.675-.674,1.006L454.6,129.8a6.35,6.35,0,0,0-5.475.594l-28.147,19.8a4.372,4.372,0,0,1-5-.191L392.92,131a7.116,7.116,0,0,0-5.486-1.259l-46.061,11.173c-1.682.408-2.058-.26-.835-1.485Z"/><path class="cls-2" d="M540.672,265.079a26.171,26.171,0,0,1-26.09,26.05h-.05l-29.53-.05-14.39-.02h-3.9l-93.36-.15-5.24-.01-13.03-.02-101.07-.15-7.94-.02-10.34-.01-93.32-.15-7.84-.01-10.44-.01-29.45-.05a26.1,26.1,0,0,1-10.13-50.11,25.686,25.686,0,0,1,6.09-1.76,26.089,26.089,0,0,1,4.07-.32h.05l193.25.3,10.35.02h4.62l3.31.01,9.72.01,5.25.01,193.36.3a24.6,24.6,0,0,1,4.05.33,21.239,21.239,0,0,1,3.18.72,26.2,26.2,0,0,1,18.82,25.09Z"/><path class="cls-1" d="M112.342,268.239c-.36-2.61-2-4.49-5.84-5.86-.16-.06-.32-.11-.49-.17l-3.17-1.06c-1.16-.39-1.69-.85-1.69-1.76a1.5,1.5,0,0,1,.96-1.41,3.3,3.3,0,0,1,1.36-.25,5.424,5.424,0,0,1,4.16,1.73l1.85-1.94,1.81-1.9a9.63,9.63,0,0,0-6.8-3.11c-.43-.04-.89-.06-1.37-.06a9.454,9.454,0,0,0-5.12,1.4,6.568,6.568,0,0,0-3.05,5.75,7.788,7.788,0,0,0,.21,1.86c.61,2.58,2.55,4.16,5.13,5.14.2.08.4.15.61.22l2.82.95c1.59.53,2.36,1.02,2.36,2.04a1.626,1.626,0,0,1-1.02,1.58,5.105,5.105,0,0,1-2.01.33,6.075,6.075,0,0,1-5-2.61L93.4,272.6c1.48,1.97,4.55,4.44,9.94,4.44a11.128,11.128,0,0,0,5.95-1.41,6.846,6.846,0,0,0,3.13-6.17A8.068,8.068,0,0,0,112.342,268.239Z"/><path class="cls-1" d="M131.3,263.119l7.96-10.39h-6.94l-7.4,9.93v-9.93h-6.41v23.95h6.41v-6.23l2.01-2.47,5.71,8.7h7.57Z"/><path class="cls-1" d="M145.842,252.729v23.95h6.41v-23.95Z"/><path class="cls-1" d="M186.192,268.189a7.243,7.243,0,0,0,4.37-6.97c0-4.9-3.38-8.49-9.47-8.49H171.4v23.95h6.41v-7.5H180l4.22,7.5h6.94Zm-5.42-3.9h-2.96v-6.13h2.96c2.18,0,3.35,1.09,3.35,3.06S182.952,264.289,180.772,264.289Z"/><path class="cls-1" d="M203.762,271.3v-4.13h8.67v-5.11h-8.67v-3.94h10.39v-5.39h-16.8v23.95h17.3V271.3Z"/><path class="cls-1" d="M236.452,252.729v12.01l-15.04-12.4c-.39-.31-.5-.14-.5.08v24.26h6.03v-11.94l15.04,12.36c.38.32.49.21.49-.06v-24.31Z"/><path class="cls-1" d="M248.522,252.729v5.39h6.34v18.56h6.41v-18.56h6.34v-5.39Z"/><path class="cls-1" d="M284.242,260.6l-2.56-5.37-1.39-2.92c-.11-.25-.32-.25-.42,0l-4.32,9.02-7.24,15.15-.1.2h6.27l1.19-2.88h8.35l1.27,2.88h6.62Zm-6.6,8.54,1.44-3.4.71-1.67.29.67,1.9,4.4Z"/><path class="cls-1" d="M303.7,271.3v-18.57h-6.41v23.95h16.59V271.3Z"/><path class="cls-1" d="M340.962,252.729H331.7v23.95h9.26a12.132,12.132,0,0,0,9.21-3.78,10.671,10.671,0,0,0,2.01-3.23,13.364,13.364,0,0,0,.9-4.96C353.082,257.269,347.862,252.729,340.962,252.729Zm5.57,11.98a7.29,7.29,0,0,1-.88,3.66,5.831,5.831,0,0,1-5.39,2.89h-2.15v-13.1h2.15a3.618,3.618,0,0,1,.47.02c3.36.18,5.5,2.39,5.77,5.79C346.522,264.209,346.532,264.459,346.532,264.709Z"/><path class="cls-1" d="M365.5,271.3v-4.13h8.67v-5.11H365.5v-3.94h10.39v-5.39h-16.8v23.95h17.3V271.3Z"/><path class="cls-1" d="M389.062,271.3v-18.57h-6.41v23.95h16.59V271.3Z"/><path class="cls-1" d="M405.512,252.729v23.95h6.41v-23.95Z"/><path class="cls-1" d="M433.932,252.729l-4.76,11.17-4.89-11.17h-6.84l11.28,24.2c.1.21.31.21.42,0l11.3-24.2Z"/><path class="cls-1" d="M452.242,271.3v-4.13h8.66v-5.11h-8.66v-3.94h10.39v-5.39h-16.8v23.95h17.29V271.3Z"/><path class="cls-1" d="M487.642,274.089l-1.44-2.46-2.02-3.44a7.258,7.258,0,0,0,4.37-6.97c0-4.9-3.38-8.49-9.48-8.49h-9.68v23.95h6.41v-7.5h2.18l3.84,6.81.39.69h6.94Zm-8.88-9.8H475.8v-6.13h2.96c2.18,0,3.34,1.09,3.34,3.06S480.942,264.289,478.762,264.289Z"/><path class="cls-1" d="M508.122,252.729l-1.09,2.03-3.62,6.74-1.1-2.04-1.36-2.53-2.27-4.2h-7.04l4.93,8.56,1.42,2.48,2.1,3.65v9.26h6.41v-9.44l8.35-14.51Z"/><path d="M470.572,338.719a3.424,3.424,0,0,0,1.62-3.12c0-1.8-1.74-3.59-4.46-3.59h-4.39V342.3h3.29v-2.94h.82l1.38,2.94h3.47Zm-2.89-1.91h-1.05V334.9h1.05c.58,0,1.15.18,1.15.87C468.832,336.579,468.262,336.809,467.682,336.809Zm2.89,1.91a3.424,3.424,0,0,0,1.62-3.12c0-1.8-1.74-3.59-4.46-3.59h-4.39V342.3h3.29v-2.94h.82l1.38,2.94h3.47Zm-2.89-1.91h-1.05V334.9h1.05c.58,0,1.15.18,1.15.87C468.832,336.579,468.262,336.809,467.682,336.809Zm-.29-9.19a10.9,10.9,0,0,0-1.29.08,9.461,9.461,0,0,0-8.43,8.4,11.172,11.172,0,0,0-.06,1.17,9.806,9.806,0,1,0,9.78-9.65Zm0,17.11a7.515,7.515,0,0,1,0-15.03,7.515,7.515,0,1,1,0,15.03Zm4.8-9.13c0-1.8-1.74-3.59-4.46-3.59h-4.39V342.3h3.29v-2.94h.82l1.38,2.94h3.47l-1.73-3.58A3.424,3.424,0,0,0,472.192,335.6Zm-4.51,1.21h-1.05V334.9h1.05c.58,0,1.15.18,1.15.87C468.832,336.579,468.262,336.809,467.682,336.809Z"/></svg>