<svg id="Layer_1" data-name="Layer 1" xmlns="http://www.w3.org/2000/svg" viewBox="0 0 240.8 370.7">
  <defs>
    <style>
      .cls-1 {
        fill: #d46eff;
      }
    </style>
  </defs>
  <title>line2</title>
  <g>
    <path id="_1" data-name="1" class="cls-1" d="M240.8,129.5l-5-.2c.1-3.6.2-7.3.2-11v-.8h5v.9C241,122.1,240.9,125.9,240.8,129.5Z" transform="translate(-0.2 -117.5)"/>
    <path id="_50" data-name="50" class="cls-1" d="M238.6,153.6l-4.9-.7c.6-3.8,1-7.7,1.4-11.7l5,.4C239.6,145.7,239.2,149.7,238.6,153.6Z" transform="translate(-0.2 -117.5)"/>
    <path id="_51" data-name="51" class="cls-1" d="M233.5,177.3l-4.8-1.4c1.1-3.7,2-7.5,2.8-11.4l4.9,1C235.6,169.5,234.6,173.5,233.5,177.3Z" transform="translate(-0.2 -117.5)"/>
    <path id="_52" data-name="52" class="cls-1" d="M224.9,200l-4.5-2.2c1.7-3.5,3.2-7.1,4.6-10.8l4.7,1.8A110.94,110.94,0,0,1,224.9,200Z" transform="translate(-0.2 -117.5)"/>
    <path id="_53" data-name="53" class="cls-1" d="M212.5,220.9l-4.1-2.9c2.3-3.2,4.4-6.5,6.4-9.8l4.3,2.5A93.2,93.2,0,0,1,212.5,220.9Z" transform="translate(-0.2 -117.5)"/>
    <path id="_54" data-name="54" class="cls-1" d="M196.7,239.3l-3.5-3.6c2.8-2.8,5.5-5.7,8-8.6l3.8,3.3C202.4,233.4,199.6,236.4,196.7,239.3Z" transform="translate(-0.2 -117.5)"/>
    <path id="_55" data-name="55" class="cls-1" d="M178.3,255.1l-3-4c3.2-2.5,6.3-4.9,9.2-7.4l3.2,3.8C184.8,250,181.6,252.6,178.3,255.1Z" transform="translate(-0.2 -117.5)"/>
    <path id="_56" data-name="56" class="cls-1" d="M158.4,268.8l-2.7-4.2c3.6-2.3,6.8-4.4,9.9-6.6l2.8,4.1C165.3,264.3,162,266.5,158.4,268.8Z" transform="translate(-0.2 -117.5)"/>
    <path id="_57" data-name="57" class="cls-1" d="M137.8,281.4l-2.5-4.3c4-2.4,7.3-4.3,10.3-6.1l2.6,4.3C145.1,277,141.9,279,137.8,281.4Z" transform="translate(-0.2 -117.5)"/>
    <path id="_58" data-name="58" class="cls-1" d="M117.2,293.6l-2.6-4.3c3.4-2.1,6.9-4.1,10.3-6.2l2.5,4.3C124,289.5,120.6,291.5,117.2,293.6Z" transform="translate(-0.2 -117.5)"/>
    <path id="_59" data-name="59" class="cls-1" d="M97,306.4l-2.8-4.1c3.2-2.1,6.5-4.3,10.1-6.6l2.7,4.2C103.4,302.1,100.2,304.3,97,306.4Z" transform="translate(-0.2 -117.5)"/>
    <path id="_60" data-name="60" class="cls-1" d="M77.9,320.4l-3.1-3.9c3-2.4,6.3-4.9,9.6-7.4l3,4C84,315.6,80.8,318,77.9,320.4Z" transform="translate(-0.2 -117.5)"/>
    <path id="_61" data-name="61" class="cls-1" d="M60.3,336.3l-3.6-3.5c2.8-2.8,5.7-5.6,8.8-8.4l3.3,3.7C65.9,330.8,63,333.5,60.3,336.3Z" transform="translate(-0.2 -117.5)"/>
    <path id="_62" data-name="62" class="cls-1" d="M45,354.2l-4-3c2.4-3.2,5-6.4,7.6-9.5l3.8,3.3A110.24,110.24,0,0,0,45,354.2Z" transform="translate(-0.2 -117.5)"/>
    <path id="_63" data-name="63" class="cls-1" d="M32.2,374l-4.4-2.4c1.9-3.5,4-7,6.2-10.4l4.2,2.7C36.1,367.1,34.1,370.5,32.2,374Z" transform="translate(-0.2 -117.5)"/>
    <path id="_64" data-name="64" class="cls-1" d="M22.2,395.3l-4.7-1.8q2.25-5.7,4.8-11.1l4.5,2.1C25.2,388,23.7,391.6,22.2,395.3Z" transform="translate(-0.2 -117.5)"/>
    <path id="_65" data-name="65" class="cls-1" d="M14.8,417.8,10,416.5c1.1-3.9,2.2-7.8,3.5-11.6l4.8,1.6C17,410.1,15.9,413.9,14.8,417.8Z" transform="translate(-0.2 -117.5)"/>
    <path id="_66" data-name="66" class="cls-1" d="M9.8,440.9l-4.9-.8c.7-4,1.5-8,2.3-11.9l4.9,1.1C11.2,433.1,10.5,437,9.8,440.9Z" transform="translate(-0.2 -117.5)"/>
    <path id="_67" data-name="67" class="cls-1" d="M6.7,464.5l-5-.5c.4-4,.8-8.1,1.3-12l5,.7C7.5,456.5,7.1,460.5,6.7,464.5Z" transform="translate(-0.2 -117.5)"/>
    <path id="_68" data-name="68" class="cls-1" d="M5.2,488.2l-5-.2q.15-6,.6-12l5,.3C5.5,480.2,5.3,484.2,5.2,488.2Z" transform="translate(-0.2 -117.5)"/>
  </g>
</svg>
