<svg id="Layer_1" data-name="Layer 1" xmlns="http://www.w3.org/2000/svg" viewBox="0 0 241 1195.4">
  <defs>
    <style>
      .cls-1 {
        fill: #d46eff;
      }
    </style>
  </defs>
  <title>line</title>
  <g>
    <polygon id="_69" data-name="69" class="cls-1" points="5 599 0 599 0 597.1 5 597.2 5 599"/>
    <path id="_68" data-name="68" class="cls-1" d="M5.2,585.2l-5-.2q.15-6,.6-12l5,.3C5.5,577.2,5.3,581.2,5.2,585.2Z"/>
    <path id="_67" data-name="67" class="cls-1" d="M6.7,561.5l-5-.5c.4-4,.8-8.1,1.3-12l5,.7C7.5,553.5,7.1,557.5,6.7,561.5Z"/>
    <path id="_66" data-name="66" class="cls-1" d="M9.8,537.9l-4.9-.8c.7-4,1.5-8,2.3-11.9l4.9,1.1C11.2,530.1,10.5,534,9.8,537.9Z"/>
    <path id="_65" data-name="65" class="cls-1" d="M14.8,514.8,10,513.5c1.1-3.9,2.2-7.8,3.5-11.6l4.8,1.6C17,507.1,15.9,510.9,14.8,514.8Z"/>
    <path id="_64" data-name="64" class="cls-1" d="M22.2,492.3l-4.7-1.8q2.25-5.7,4.8-11.1l4.5,2.1C25.2,485,23.7,488.6,22.2,492.3Z"/>
    <path id="_63" data-name="63" class="cls-1" d="M32.2,471l-4.4-2.4c1.9-3.5,4-7,6.2-10.4l4.2,2.7C36.1,464.1,34.1,467.5,32.2,471Z"/>
    <path id="_62" data-name="62" class="cls-1" d="M45,451.2l-4-3c2.4-3.2,5-6.4,7.6-9.5l3.8,3.3A110.24,110.24,0,0,0,45,451.2Z"/>
    <path id="_61" data-name="61" class="cls-1" d="M60.3,433.3l-3.6-3.5c2.8-2.8,5.7-5.6,8.8-8.4l3.3,3.7C65.9,427.8,63,430.5,60.3,433.3Z"/>
    <path id="_60" data-name="60" class="cls-1" d="M77.9,417.4l-3.1-3.9c3-2.4,6.3-4.9,9.6-7.4l3,4C84,412.6,80.8,415,77.9,417.4Z"/>
    <path id="_59" data-name="59" class="cls-1" d="M97,403.4l-2.8-4.1c3.2-2.1,6.5-4.3,10.1-6.6l2.7,4.2C103.4,399.1,100.2,401.3,97,403.4Z"/>
    <path id="_58" data-name="58" class="cls-1" d="M117.2,390.6l-2.6-4.3c3.4-2.1,6.9-4.1,10.3-6.2l2.5,4.3C124,386.5,120.6,388.5,117.2,390.6Z"/>
    <path id="_57" data-name="57" class="cls-1" d="M137.8,378.4l-2.5-4.3c4-2.4,7.3-4.3,10.3-6.1l2.6,4.3C145.1,374,141.9,376,137.8,378.4Z"/>
    <path id="_56" data-name="56" class="cls-1" d="M158.4,365.8l-2.7-4.2c3.6-2.3,6.8-4.4,9.9-6.6l2.8,4.1C165.3,361.3,162,363.5,158.4,365.8Z"/>
    <path id="_55" data-name="55" class="cls-1" d="M178.3,352.1l-3-4c3.2-2.5,6.3-4.9,9.2-7.4l3.2,3.8C184.8,347,181.6,349.6,178.3,352.1Z"/>
    <path id="_54" data-name="54" class="cls-1" d="M196.7,336.3l-3.5-3.6c2.8-2.8,5.5-5.7,8-8.6l3.8,3.3C202.4,330.4,199.6,333.4,196.7,336.3Z"/>
    <path id="_53" data-name="53" class="cls-1" d="M212.5,317.9l-4.1-2.9c2.3-3.2,4.4-6.5,6.4-9.8l4.3,2.5A93.2,93.2,0,0,1,212.5,317.9Z"/>
    <path id="_52" data-name="52" class="cls-1" d="M224.9,297l-4.5-2.2c1.7-3.5,3.2-7.1,4.6-10.8l4.7,1.8A110.94,110.94,0,0,1,224.9,297Z"/>
    <path id="_51" data-name="51" class="cls-1" d="M233.5,274.3l-4.8-1.4c1.1-3.7,2-7.5,2.8-11.4l4.9,1C235.6,266.5,234.6,270.5,233.5,274.3Z"/>
    <path id="_50" data-name="50" class="cls-1" d="M238.6,250.6l-4.9-.7c.6-3.8,1-7.7,1.4-11.7l5,.4C239.6,242.7,239.2,246.7,238.6,250.6Z"/>
    <path id="_49" data-name="49" class="cls-1" d="M240.8,226.5l-5-.2c.1-3.6.2-7.3.2-11v-.8h5v.9C241,219.1,240.9,222.9,240.8,226.5Z"/>
    <path id="_48" data-name="48" class="cls-1" d="M235.3,202.8a83.57,83.57,0,0,0-2-11.5l4.9-1.2a112.93,112.93,0,0,1,2.1,12.1Z"/>
    <path id="_47" data-name="47" class="cls-1" d="M229.8,180.2a66.8,66.8,0,0,0-5.1-10.4l4.3-2.5a75.84,75.84,0,0,1,5.4,11.1Z"/>
    <path id="_46" data-name="46" class="cls-1" d="M218.1,160.3a104.67,104.67,0,0,0-7.9-8.5l3.4-3.6a100.72,100.72,0,0,1,8.4,9Z"/>
    <path id="_45" data-name="45" class="cls-1" d="M201.2,144.3c-3-2.2-6.3-4.4-9.8-6.6l2.6-4.3c3.6,2.2,7,4.5,10.1,6.8Z"/>
    <path id="_44" data-name="44" class="cls-1" d="M181.1,131.9c-3.3-1.7-6.9-3.4-10.7-5.1l2-4.6c3.9,1.7,7.5,3.5,10.9,5.3Z"/>
    <path id="_43" data-name="43" class="cls-1" d="M159.4,122.1c-3.4-1.4-7.1-2.8-11.1-4.3l1.7-4.7c4.1,1.5,7.8,3,11.3,4.4Z"/>
    <path id="_42" data-name="42" class="cls-1" d="M137,113.8c-2-.7-4.1-1.4-6.1-2.2l-5.2-1.8,1.7-4.7,5.2,1.8c2.1.7,4.1,1.4,6.1,2.2Z"/>
    <path id="_41" data-name="41" class="cls-1" d="M114.4,105.8c-4.3-1.5-8-2.9-11.3-4.1l1.8-4.7c3.3,1.2,7,2.6,11.2,4.1Z"/>
    <path id="_40" data-name="40" class="cls-1" d="M91.8,97.3c-4-1.6-7.6-3.2-11.1-4.7L82.8,88c3.4,1.5,7,3.1,10.9,4.7Z"/>
    <path id="_39" data-name="39" class="cls-1" d="M69.8,87.3c-3.7-1.9-7.3-4-10.6-6L61.8,77c3.2,2,6.7,3.9,10.3,5.8Z"/>
    <path id="_38" data-name="38" class="cls-1" d="M49,74.4a105.91,105.91,0,0,1-9.4-7.9L43,62.9a95.1,95.1,0,0,0,8.9,7.5Z"/>
    <path id="_37" data-name="37" class="cls-1" d="M31.3,57.5a87.76,87.76,0,0,1-7-10.2l4.3-2.5a85.25,85.25,0,0,0,6.5,9.6Z"/>
    <path id="_36" data-name="36" class="cls-1" d="M19,36.1a76.82,76.82,0,0,1-3.6-11.8l4.9-1.1a79.48,79.48,0,0,0,3.4,11.1Z"/>
    <path id="_35" data-name="35" class="cls-1" d="M13.4,12.2A120.1,120.1,0,0,1,12.8,0h5a110.33,110.33,0,0,0,.6,11.7Z"/>
  </g>
  <g>
    <path id="_34" data-name="34" class="cls-1" d="M5,1195.4l-5-.1c.1-4.1.2-8.1.5-12.1l5,.3C5.2,1187.4,5.1,1191.4,5,1195.4Z"/>
    <path id="_33" data-name="33" class="cls-1" d="M6.5,1171.8l-5-.6c.5-4,1-8.1,1.7-12l4.9.9C7.6,1163.9,7,1167.8,6.5,1171.8Z"/>
    <path id="_32" data-name="32" class="cls-1" d="M10.6,1148.5l-4.9-1.1c.9-3.9,2-7.9,3.1-11.7l4.8,1.4Q11.95,1142.65,10.6,1148.5Z"/>
    <path id="_31" data-name="31" class="cls-1" d="M17.3,1125.9l-4.7-1.7c1.4-3.8,2.9-7.6,4.6-11.2l4.6,2C20.2,1118.5,18.7,1122.2,17.3,1125.9Z"/>
    <path id="_30" data-name="30" class="cls-1" d="M26.9,1104.3l-4.4-2.3c1.8-3.5,3.8-7.1,5.9-10.6l4.3,2.6C30.6,1097.3,28.7,1100.8,26.9,1104.3Z"/>
    <path id="_29" data-name="29" class="cls-1" d="M39,1084l-4.1-2.8c2.2-3.3,4.6-6.6,7.1-9.8l4,3C43.5,1077.5,41.2,1080.8,39,1084Z"/>
    <path id="_28" data-name="28" class="cls-1" d="M53.3,1065.1l-3.8-3.2c2.5-3,5.2-6.1,8-9.1l3.7,3.4C58.4,1059.1,55.8,1062.1,53.3,1065.1Z"/>
    <path id="_27" data-name="27" class="cls-1" d="M69.3,1047.5l-3.6-3.5c2.7-2.8,5.6-5.6,8.6-8.5l3.4,3.6C74.9,1042,72,1044.8,69.3,1047.5Z"/>
    <path id="_26" data-name="26" class="cls-1" d="M86.6,1031l-3.4-3.7c2.8-2.6,5.9-5.3,9-8l3.3,3.8C92.4,1025.8,89.4,1028.5,86.6,1031Z"/>
    <path id="_25" data-name="25" class="cls-1" d="M104.6,1015.4l-3.2-3.8c3.1-2.6,6.2-5.1,9.3-7.7l3.2,3.9C110.8,1010.3,107.7,1012.8,104.6,1015.4Z"/>
    <rect id="_24" data-name="24" class="cls-1" x="120.12" y="991.88" width="12" height="5" transform="translate(-598.77 302.11) rotate(-39.09)"/>
    <path id="_23" data-name="23" class="cls-1" d="M141.7,985l-3.2-3.9c3.4-2.8,6.4-5.3,9.2-7.7l3.2,3.8C148.1,979.7,145.1,982.2,141.7,985Z"/>
    <path id="_22" data-name="22" class="cls-1" d="M160.1,969.5l-3.3-3.8c3.1-2.7,6.1-5.4,8.9-8l3.4,3.7Q164.9,965.3,160.1,969.5Z"/>
    <path id="_21" data-name="21" class="cls-1" d="M177.9,953.2l-3.5-3.6c2.9-2.8,5.7-5.7,8.4-8.5l3.6,3.5C183.7,947.4,180.9,950.3,177.9,953.2Z"/>
    <path id="_20" data-name="20" class="cls-1" d="M194.6,935.6l-3.8-3.3c2.6-3,5.2-6.1,7.6-9.1l3.9,3.1C199.9,929.4,197.3,932.5,194.6,935.6Z"/>
    <path id="_19" data-name="19" class="cls-1" d="M209.6,916.6l-4.1-2.9c2.3-3.3,4.5-6.6,6.5-9.9l4.3,2.6C214.1,909.8,211.9,913.2,209.6,916.6Z"/>
    <path id="_18" data-name="18" class="cls-1" d="M222.1,895.8l-4.4-2.3c1.8-3.5,3.5-7.1,5-10.7l4.6,2C225.8,888.5,224,892.2,222.1,895.8Z"/>
    <path id="_17" data-name="17" class="cls-1" d="M231.7,873.5l-4.7-1.6c1.3-3.7,2.4-7.5,3.4-11.3l4.8,1.3C234.2,865.8,233,869.7,231.7,873.5Z"/>
    <path id="_16" data-name="16" class="cls-1" d="M237.9,850.1l-4.9-.9q1-5.7,1.8-11.7l5,.6C239.2,842.1,238.6,846.1,237.9,850.1Z"/>
    <path id="_15" data-name="15" class="cls-1" d="M240.7,826l-5-.3c.2-3.4.3-6.9.3-10.4v-1.4l5-.1v1.4Q241,820.75,240.7,826Z"/>
    <path id="_14" data-name="14" class="cls-1" d="M235.3,802.2a100.1,100.1,0,0,0-2.1-11.4l4.9-1.2a91,91,0,0,1,2.2,12Z"/>
    <path id="_13" data-name="13" class="cls-1" d="M229.6,779.8a75.87,75.87,0,0,0-5.1-10.3l4.3-2.6a86.83,86.83,0,0,1,5.5,11Z"/>
    <path id="_12" data-name="12" class="cls-1" d="M217.9,760a104.67,104.67,0,0,0-7.9-8.5l3.4-3.7a99.75,99.75,0,0,1,8.4,8.9Z"/>
    <path id="_11" data-name="11" class="cls-1" d="M201,744.1c-3-2.2-6.3-4.4-9.8-6.5l2.6-4.3c3.6,2.2,7,4.5,10.1,6.8Z"/>
    <path id="_10" data-name="10" class="cls-1" d="M180.9,731.8c-3.3-1.7-6.9-3.4-10.7-5.1l2-4.6c3.9,1.7,7.5,3.5,10.9,5.2Z"/>
    <path id="_9" data-name="9" class="cls-1" d="M159.2,722.1c-3.4-1.4-7.1-2.8-11.1-4.3l1.7-4.7c4.1,1.5,7.8,2.9,11.3,4.3Z"/>
    <path id="_8" data-name="8" class="cls-1" d="M136.8,713.7c-3.6-1.3-7.1-2.5-10.7-3.8l-.7-.2,1.7-4.7.7.2c3.6,1.3,7.1,2.5,10.7,3.8Z"/>
    <path id="_7" data-name="7" class="cls-1" d="M114.1,705.7c-4.3-1.5-8-2.9-11.3-4.1l1.8-4.7c3.3,1.2,7,2.6,11.3,4.1Z"/>
    <path id="_6" data-name="6" class="cls-1" d="M91.5,697.2c-4-1.6-7.6-3.2-11.1-4.8l2.1-4.6c3.4,1.6,7,3.1,11,4.7Z"/>
    <path id="_5" data-name="5" class="cls-1" d="M69.5,687.1c-3.7-2-7.3-4-10.6-6l2.6-4.3c3.2,2,6.6,3.9,10.3,5.8Z"/>
    <path id="_4" data-name="4" class="cls-1" d="M48.8,674.2a91.83,91.83,0,0,1-9.3-7.9l3.5-3.6a114,114,0,0,0,8.9,7.6Z"/>
    <path id="_3" data-name="3" class="cls-1" d="M31.1,657.2A76.13,76.13,0,0,1,24.2,647l4.3-2.5a85.24,85.24,0,0,0,6.5,9.6Z"/>
    <path id="_2" data-name="2" class="cls-1" d="M19,636a88.33,88.33,0,0,1-3.6-11.7l4.9-1.1a78.13,78.13,0,0,0,3.4,11Z"/>
    <path id="_1" data-name="1" class="cls-1" d="M13.4,612.2a120.1,120.1,0,0,1-.6-12.2h5a111.72,111.72,0,0,0,.6,11.7Z"/>
  </g>
</svg>
