<svg id="Layer_1" data-name="Layer 1" xmlns="http://www.w3.org/2000/svg" viewBox="0 0 228.2 226.5">
  <defs>
    <style>
      .cls-1 {
        fill: #d46eff;
      }
    </style>
  </defs>
  <title>line1</title>
  <g>
    <path id="_1" data-name="1" class="cls-1" d="M228,226.5l-5-.2c.1-3.6.2-7.3.2-11v-.8h5v.9C228.2,219.1,228.1,222.9,228,226.5Z"/>
    <path id="_2" data-name="2" class="cls-1" d="M222.5,202.8a83.57,83.57,0,0,0-2-11.5l4.9-1.2a112.93,112.93,0,0,1,2.1,12.1Z"/>
    <path id="_3" data-name="3" class="cls-1" d="M217,180.2a66.8,66.8,0,0,0-5.1-10.4l4.3-2.5a75.84,75.84,0,0,1,5.4,11.1Z"/>
    <path id="_4" data-name="4" class="cls-1" d="M205.3,160.3a104.67,104.67,0,0,0-7.9-8.5l3.4-3.6a100.72,100.72,0,0,1,8.4,9Z"/>
    <path id="_5" data-name="5" class="cls-1" d="M188.4,144.3c-3-2.2-6.3-4.4-9.8-6.6l2.6-4.3c3.6,2.2,7,4.5,10.1,6.8Z"/>
    <path id="_6" data-name="6" class="cls-1" d="M168.3,131.9c-3.3-1.7-6.9-3.4-10.7-5.1l2-4.6c3.9,1.7,7.5,3.5,10.9,5.3Z"/>
    <path id="_7" data-name="7" class="cls-1" d="M146.6,122.1c-3.4-1.4-7.1-2.8-11.1-4.3l1.7-4.7c4.1,1.5,7.8,3,11.3,4.4Z"/>
    <path id="_8" data-name="8" class="cls-1" d="M124.2,113.8c-2-.7-4.1-1.4-6.1-2.2l-5.2-1.8,1.7-4.7,5.2,1.8c2.1.7,4.1,1.4,6.1,2.2Z"/>
    <path id="_9" data-name="9" class="cls-1" d="M101.6,105.8c-4.3-1.5-8-2.9-11.3-4.1L92.1,97c3.3,1.2,7,2.6,11.2,4.1Z"/>
    <path id="_10" data-name="10" class="cls-1" d="M79,97.3c-4-1.6-7.6-3.2-11.1-4.7L70,88c3.4,1.5,7,3.1,10.9,4.7Z"/>
    <path id="_11" data-name="11" class="cls-1" d="M57,87.3c-3.7-1.9-7.3-4-10.6-6L49,77c3.2,2,6.7,3.9,10.3,5.8Z"/>
    <path id="_12" data-name="12" class="cls-1" d="M36.2,74.4a105.91,105.91,0,0,1-9.4-7.9l3.4-3.6a95.1,95.1,0,0,0,8.9,7.5Z"/>
    <path id="_13" data-name="13" class="cls-1" d="M18.5,57.5a87.76,87.76,0,0,1-7-10.2l4.3-2.5a85.25,85.25,0,0,0,6.5,9.6Z"/>
    <path id="_14" data-name="14" class="cls-1" d="M6.2,36.1A76.82,76.82,0,0,1,2.6,24.3l4.9-1.1a79.48,79.48,0,0,0,3.4,11.1Z"/>
    <path id="_15" data-name="15" class="cls-1" d="M.6,12.2A120.1,120.1,0,0,1,0,0H5a110.33,110.33,0,0,0,.6,11.7Z"/>
  </g>
</svg>
