<?xml version="1.0" encoding="UTF-8"?>
<svg width="577px" height="192px" viewBox="0 0 577 192" version="1.1" xmlns="http://www.w3.org/2000/svg" xmlns:xlink="http://www.w3.org/1999/xlink">
    <!-- Generator: Sketch 55 (78076) - https://sketchapp.com -->
    <title>Logo / POW</title>
    <desc>Created with Sketch.</desc>
    <defs>
        <polygon id="path-1" points="0 191.589 576.145 191.589 576.145 0 0 0"></polygon>
    </defs>
    <g id="Logo-/-POW" stroke="none" stroke-width="1" fill="none" fill-rule="evenodd">
        <g id="Group-34">
            <path d="M567.5361,97.3393 C567.3741,96.7243 566.9791,96.2143 566.4271,95.8993 L549.7431,86.9273 L564.3991,81.1823 C565.2461,80.7113 565.5681,79.6153 565.1211,78.7493 L562.9871,74.7793 C562.6751,74.2013 562.0621,73.8393 561.4131,73.8393 C561.1161,73.8393 560.8231,73.9133 560.5601,74.0573 L543.1731,83.3973 L519.7491,70.7843 L543.1921,58.1793 L560.5601,67.5283 C560.8231,67.6673 561.1161,67.7353 561.4131,67.7353 C562.0751,67.7353 562.6751,67.3763 562.9781,66.7823 L565.1211,62.8253 C565.5841,61.9433 565.2651,60.8813 564.3281,60.3563 L549.7651,54.6493 L566.4011,45.6973 C566.9791,45.3573 567.3741,44.8433 567.5361,44.2253 C567.7231,43.6173 567.6321,42.9703 567.3161,42.4203 L565.0641,38.5253 C564.6461,37.7853 563.8491,37.3283 563.0061,37.3283 C562.5781,37.3283 562.1651,37.4413 561.8071,37.6473 L545.6751,47.5683 L548.0431,32.0373 C548.0581,31.5493 547.8931,31.0903 547.5661,30.7443 C547.2311,30.3903 546.7881,30.1933 546.3101,30.1743 L541.7621,30.0253 C540.8121,30.0253 540.0061,30.8023 539.9501,31.7653 L539.3221,51.4793 L516.6431,65.4363 L517.4151,38.8213 L534.1831,28.4133 C535.0301,27.8893 535.2791,26.7763 534.7591,25.9583 L532.3901,22.1153 C532.0591,21.5973 531.4751,21.2793 530.8601,21.2793 C530.5251,21.2793 530.2041,21.3763 529.8671,21.5913 L517.6311,31.3593 L518.1871,12.4573 C518.1871,11.1103 517.1061,10.0393 515.8011,10.0393 L511.2931,10.0393 C509.9771,10.0393 508.9191,11.1103 508.9191,12.4293 L509.4721,31.3593 L497.1771,21.5473 C496.8871,21.3763 496.5741,21.2793 496.2401,21.2793 C495.6051,21.2793 495.0401,21.5973 494.6961,22.1283 L492.3381,25.9483 C491.8161,26.7763 492.0691,27.8893 492.9071,28.4293 L509.6841,38.8133 L510.4461,65.4423 L487.7621,51.4763 L487.1371,31.7563 C487.0871,30.8023 486.2811,30.0253 485.2651,30.0253 L480.7801,30.1743 C479.7961,30.2003 479.0181,31.0383 479.0431,32.1063 L481.4081,47.5653 L465.3111,37.6593 C464.9301,37.4413 464.5121,37.3283 464.0941,37.3283 C463.2341,37.3283 462.4531,37.7853 462.0281,38.5253 L459.7851,42.4203 C459.1261,43.5633 459.5171,45.0193 460.6631,45.6813 L477.3501,54.6493 L462.6841,60.4003 C461.8281,60.8813 461.5071,61.9473 461.9731,62.8253 L464.1091,66.7823 C464.4081,67.3763 465.0181,67.7353 465.6961,67.7353 C465.9831,67.7353 466.2701,67.6673 466.5401,67.5283 L483.9071,58.1793 L507.3501,70.7843 L483.9071,83.3973 L466.5401,74.0573 C466.2931,73.9133 465.9831,73.8393 465.6811,73.8393 C465.0181,73.8393 464.4081,74.2013 464.1091,74.7913 L461.9731,78.7493 C461.5071,79.6273 461.8381,80.7113 462.7631,81.2163 L477.3441,86.9273 L460.6821,95.8793 C460.1201,96.2043 459.7141,96.7243 459.5551,97.3393 C459.3731,97.9503 459.4541,98.5973 459.7851,99.1573 L462.0281,103.0523 C462.4531,103.7953 463.2401,104.2523 464.1091,104.2523 C464.5121,104.2523 464.9301,104.1423 465.2861,103.9363 L481.4081,94.0063 L479.0431,109.5363 C479.0181,110.5353 479.7901,111.3663 480.7801,111.4053 L485.2781,111.5543 L485.3221,111.5543 C486.2971,111.5543 487.0871,110.7903 487.1281,109.8083 L487.7621,90.0973 L510.4461,76.1383 L509.6841,102.7683 L492.9291,113.1573 C492.5141,113.4143 492.2251,113.8133 492.1191,114.2723 C491.9941,114.7403 492.0851,115.2243 492.3381,115.6243 L494.7061,119.4483 C495.0401,119.9743 495.6151,120.2973 496.2401,120.2973 C496.5741,120.2973 496.9021,120.1953 497.2491,119.9893 L509.4561,110.2183 L508.9191,129.1123 C508.9191,130.4583 509.9771,131.5363 511.2931,131.5363 L515.8011,131.5363 C517.1061,131.5363 518.1871,130.4583 518.1871,129.1503 L517.6311,110.2123 L529.9171,120.0283 C530.2041,120.1953 530.5251,120.2973 530.8631,120.2973 C531.4751,120.2973 532.0591,119.9803 532.3901,119.4483 L534.7591,115.6243 C535.0061,115.2243 535.0871,114.7403 534.9831,114.2723 C534.8611,113.8133 534.5861,113.4143 534.1781,113.1573 L517.4151,102.7553 L516.6431,76.1383 L539.3221,90.1033 L539.9501,109.8143 C540.0061,110.7903 540.7931,111.5543 541.7771,111.5543 L541.8111,111.5543 L546.3101,111.4053 C547.3121,111.3663 548.0841,110.5353 548.0401,109.4713 L545.6801,94.0113 L561.7881,103.9153 C562.1651,104.1423 562.5781,104.2523 562.9871,104.2523 C563.8491,104.2523 564.6461,103.7953 565.0641,103.0523 L567.3161,99.1573 C567.6321,98.5973 567.7231,97.9503 567.5361,97.3393 L567.5361,97.3393 Z M576.1041,136.2793 C576.1041,137.6413 574.9881,138.7533 573.6271,138.7533 L453.4631,138.7533 C452.1041,138.7533 450.9801,137.6413 450.9801,136.2793 L450.9801,5.2973 C450.9801,3.9273 452.1041,2.8233 453.4631,2.8233 L573.6271,2.8233 C574.9881,2.8233 576.1041,3.9273 576.1041,5.2973 L576.1041,136.2793 Z" id="Fill-1" fill="#234B64"></path>
            <path d="M209.895,70.7587 C209.895,90.2817 196.157,106.9087 175.462,106.9087 C154.984,106.9087 140.873,89.8947 140.873,70.3717 L140.873,69.9847 C140.873,50.4607 154.599,33.8297 175.089,33.8297 C195.768,33.8297 209.895,50.8417 209.895,70.3717 L209.895,70.7587 Z M76.888,52.3917 C76.888,63.0247 68.761,69.9847 55.425,69.9847 L37.638,69.9847 L37.638,34.2167 L55.228,34.2167 C68.761,34.2167 76.888,40.4087 76.888,52.0037 L76.888,52.3917 Z M398.947,2.7077 L375.353,81.0017 L349.257,2.3207 L316.993,2.3207 L290.882,81.0017 L267.291,2.7077 L227.669,2.7077 L237.932,33.6307 C225.535,13.4447 202.87,0.0007 175.462,0.0007 C147.52,0.0007 124.303,14.1567 111.98,35.1517 C105.62,14.5697 86.04,2.7077 58.139,2.7077 L0.144,2.7077 L0.144,138.0417 L37.638,138.0417 L37.638,99.3687 L56.196,99.3687 C76.24,99.3687 93.009,93.3497 103.333,81.7707 C108.577,115.3187 137.362,140.7397 175.089,140.7397 C216.85,140.7397 248.159,109.2307 248.159,70.3717 L248.159,69.9847 C248.159,67.7847 248.036,65.6227 247.834,63.4777 L272.899,139.0037 L305.575,139.0037 L332.631,61.0887 L359.898,139.0037 L392.576,139.0037 L437.811,2.7077 L398.947,2.7077 Z" id="Fill-3" fill="#234B64"></path>
            <path d="M12.7803,174.8705 C17.2603,174.8705 20.0413,172.3675 20.0413,168.8655 L20.0413,168.7695 C20.0413,164.8245 17.1983,162.7485 12.7803,162.7485 L5.9143,162.7485 L5.9143,174.8705 L12.7803,174.8705 Z M0.0003,157.3745 L13.2703,157.3745 C21.0953,157.3745 26.0393,161.8435 26.0393,168.6165 L26.0393,168.7125 C26.0393,176.2515 20.0013,180.2015 12.5933,180.2015 L5.9143,180.2015 L5.9143,191.0105 L0.0003,191.0105 L0.0003,157.3745 Z" id="Fill-5" fill="#234B64"></path>
            <path d="M46.6763,174.0502 C50.9083,174.0502 53.6033,171.8402 53.6033,168.4252 L53.6033,168.3282 C53.6033,164.7262 51.0123,162.7492 46.6253,162.7492 L38.0363,162.7492 L38.0363,174.0502 L46.6763,174.0502 Z M32.1213,157.3752 L47.1023,157.3752 C51.3483,157.3752 54.6583,158.6252 56.8233,160.7422 C58.5993,162.5612 59.6013,165.0672 59.6013,167.9972 L59.6013,168.0842 C59.6013,173.6062 56.2893,176.9372 51.5753,178.2852 L60.6663,191.0102 L53.6873,191.0102 L45.4333,179.2862 L38.0363,179.2862 L38.0363,191.0102 L32.1213,191.0102 L32.1213,157.3752 Z" id="Fill-7" fill="#234B64"></path>
            <path d="M93.4136,174.29 L93.4136,174.189 C93.4136,167.666 88.6396,162.221 81.9756,162.221 C75.2756,162.221 70.6256,167.556 70.6256,174.098 L70.6256,174.189 C70.6256,180.729 75.3796,186.16 82.0456,186.16 C88.7326,186.16 93.4136,180.832 93.4136,174.29 M64.4286,174.29 L64.4286,174.189 C64.4286,164.726 71.7216,156.797 82.0456,156.797 C92.3916,156.797 99.6016,164.628 99.6016,174.098 L99.6016,174.189 C99.6016,183.66 92.2976,191.589 81.9756,191.589 C71.6266,191.589 64.4286,183.762 64.4286,174.29" id="Fill-9" fill="#234B64"></path>
            <polygon id="Fill-11" fill="#234B64" points="109.3823 162.852 98.7033 162.852 98.7033 157.375 126.0163 157.375 126.0163 162.852 115.3373 162.852 115.3373 191.011 109.3823 191.011"></polygon>
            <polygon id="Fill-13" fill="#234B64" points="132.2637 157.3749 157.2197 157.3749 157.2197 162.6619 138.1787 162.6619 138.1787 171.4079 155.0457 171.4079 155.0457 176.6969 138.1787 176.6969 138.1787 185.7239 157.4447 185.7239 157.4447 191.0109 132.2637 191.0109"></polygon>
            <path d="M161.0615,174.29 L161.0615,174.189 C161.0615,164.628 168.2275,156.797 178.4095,156.797 C184.6135,156.797 188.3665,158.957 191.5825,162.036 L187.7895,166.409 C185.0965,163.913 182.2105,162.221 178.3645,162.221 C171.9285,162.221 167.2655,167.51 167.2655,174.098 L167.2655,174.189 C167.2655,180.77 171.9285,186.16 178.3645,186.16 C182.5035,186.16 185.1405,184.48 188.0225,181.783 L191.8235,185.628 C188.3135,189.283 184.4695,191.589 178.1805,191.589 C168.3745,191.589 161.0615,183.948 161.0615,174.29" id="Fill-15" fill="#234B64"></path>
            <polygon id="Fill-17" fill="#234B64" points="205.3433 162.852 194.6663 162.852 194.6663 157.375 221.9593 157.375 221.9593 162.852 211.2983 162.852 211.2983 191.011 205.3433 191.011"></polygon>
            <path d="M262.4907,174.29 L262.4907,174.189 C262.4907,167.666 257.7387,162.221 251.0647,162.221 C244.3757,162.221 239.7147,167.556 239.7147,174.098 L239.7147,174.189 C239.7147,180.729 244.4677,186.16 251.1467,186.16 C257.8297,186.16 262.4907,180.832 262.4907,174.29 M233.5077,174.29 L233.5077,174.189 C233.5077,164.726 240.8227,156.797 251.1467,156.797 C261.4887,156.797 268.6997,164.628 268.6997,174.098 L268.6997,174.189 C268.6997,183.66 261.3877,191.589 251.0647,191.589 C240.7197,191.589 233.5077,183.762 233.5077,174.29" id="Fill-19" fill="#234B64"></path>
            <path d="M273.4268,176.7426 L273.4268,157.3746 L279.3158,157.3746 L279.3158,176.4956 C279.3158,182.7496 282.5468,186.1126 287.8398,186.1126 C293.0668,186.1126 296.2848,182.9416 296.2848,176.7426 L296.2848,157.3746 L302.2118,157.3746 L302.2118,176.4476 C302.2118,186.4956 296.5378,191.5456 287.7288,191.5456 C278.9928,191.5456 273.4268,186.4956 273.4268,176.7426" id="Fill-21" fill="#234B64"></path>
            <path d="M324.918,174.0502 C329.12,174.0502 331.831,171.8402 331.831,168.4252 L331.831,168.3282 C331.831,164.7262 329.223,162.7492 324.855,162.7492 L316.266,162.7492 L316.266,174.0502 L324.918,174.0502 Z M310.342,157.3752 L325.334,157.3752 C329.579,157.3752 332.876,158.6252 335.056,160.7422 C336.825,162.5612 337.84,165.0672 337.84,167.9972 L337.84,168.0842 C337.84,173.6062 334.508,176.9372 329.828,178.2852 L338.897,191.0102 L331.902,191.0102 L323.663,179.2862 L316.266,179.2862 L316.266,191.0102 L310.342,191.0102 L310.342,157.3752 Z" id="Fill-23" fill="#234B64"></path>
            <polygon id="Fill-25" fill="#234B64" points="350.5059 157.3749 356.9019 157.3749 364.9259 182.3149 373.1849 157.2839 378.2119 157.2839 386.4569 182.3149 394.4779 157.3749 400.6879 157.3749 388.9499 191.2579 383.8719 191.2579 375.6029 167.0829 367.3439 191.2579 362.2429 191.2579"></polygon>
            <mask id="mask-2" fill="white">
                <use xlink:href="#path-1"></use>
            </mask>
            <g id="Clip-28"></g>
            <polygon id="Fill-27" fill="#234B64" mask="url(#mask-2)" points="405.185 191.011 411.088 191.011 411.088 157.375 405.185 157.375"></polygon>
            <polygon id="Fill-29" fill="#234B64" mask="url(#mask-2)" points="420.0928 157.3749 425.5638 157.3749 443.5798 180.6279 443.5798 157.3749 449.4038 157.3749 449.4038 191.0109 444.4688 191.0109 425.8998 167.0829 425.8998 191.0109 420.0928 191.0109"></polygon>
            <polygon id="Fill-30" fill="#234B64" mask="url(#mask-2)" points="464.4121 162.852 453.7361 162.852 453.7361 157.375 481.0481 157.375 481.0481 162.852 470.3821 162.852 470.3821 191.011 464.4121 191.011"></polygon>
            <polygon id="Fill-31" fill="#234B64" mask="url(#mask-2)" points="485.3594 157.3749 510.3384 157.3749 510.3384 162.6619 491.2874 162.6619 491.2874 171.4079 508.1524 171.4079 508.1524 176.6969 491.2874 176.6969 491.2874 185.7239 510.5804 185.7239 510.5804 191.0109 485.3594 191.0109"></polygon>
            <path d="M532.1348,174.0502 C536.3988,174.0502 539.0698,171.8402 539.0698,168.4252 L539.0698,168.3282 C539.0698,164.7262 536.4798,162.7492 532.1018,162.7492 L523.5128,162.7492 L523.5128,174.0502 L532.1348,174.0502 Z M517.6018,157.3752 L532.5718,157.3752 C536.8148,157.3752 540.1298,158.6252 542.3018,160.7422 C544.0728,162.5612 545.0828,165.0672 545.0828,167.9972 L545.0828,168.0842 C545.0828,173.6062 541.7698,176.9372 537.0578,178.2852 L546.1238,191.0102 L539.1638,191.0102 L530.9108,179.2862 L523.5128,179.2862 L523.5128,191.0102 L517.6018,191.0102 L517.6018,157.3752 Z" id="Fill-32" fill="#234B64" mask="url(#mask-2)"></path>
            <path d="M550.085,186.1122 L553.636,181.8852 C556.867,184.6722 560.096,186.2542 564.269,186.2542 C567.931,186.2542 570.245,184.5732 570.245,182.0272 L570.245,181.9332 C570.245,179.5272 568.878,178.2332 562.641,176.7952 C555.476,175.0552 551.438,172.9442 551.438,166.7442 L551.438,166.6482 C551.438,160.8812 556.263,156.8902 562.929,156.8902 C567.825,156.8902 571.702,158.3812 575.121,161.1242 L571.943,165.5882 C568.933,163.3342 565.904,162.1342 562.822,162.1342 C559.349,162.1342 557.36,163.9122 557.36,166.1202 L557.36,166.2182 C557.36,168.8112 558.879,169.9652 565.326,171.4992 C572.432,173.2272 576.145,175.7892 576.145,181.3582 L576.145,181.4492 C576.145,187.7442 571.203,191.4972 564.119,191.4972 C558.992,191.4972 554.127,189.7122 550.085,186.1122" id="Fill-33" fill="#234B64" mask="url(#mask-2)"></path>
        </g>
    </g>
</svg>