<?xml version="1.0" encoding="UTF-8"?>
<svg width="29px" height="17px" viewBox="0 0 29 17" version="1.1" xmlns="http://www.w3.org/2000/svg" xmlns:xlink="http://www.w3.org/1999/xlink">
    <!-- Generator: Sketch 50.2 (55047) - http://www.bohemiancoding.com/sketch -->
    <title>Shape</title>
    <desc>Created with Sketch.</desc>
    <defs></defs>
    <g id="Page-1" stroke="none" stroke-width="1" fill="none" fill-rule="evenodd">
        <g id="HomePage-Map" transform="translate(-116.000000, -3264.000000)" fill="#8B8B8B" fill-rule="nonzero">
            <g id="BODY" transform="translate(-368.000000, 775.000000)">
                <g id="Testimonials" transform="translate(414.000000, 2391.000000)">
                    <g id="1" transform="translate(67.000000, 0.000000)">
                        <g id="trip-advisor" transform="translate(3.000000, 98.000000)">
                            <path d="M7.14404762,6.25357143 C5.22142857,6.25357143 3.68333333,7.81190476 3.68333333,9.73452381 C3.68333333,11.6571429 5.24166667,13.1952381 7.14404762,13.1952381 C9.06666667,13.1952381 10.625,11.6369048 10.625,9.73452381 C10.6047619,7.81190476 9.06666667,6.25357143 7.14404762,6.25357143 Z M7.14404762,12.1428571 C5.80833333,12.1428571 4.73571429,11.0702381 4.73571429,9.73452381 C4.73571429,8.39880952 5.80833333,7.32619048 7.14404762,7.32619048 C8.4797619,7.32619048 9.55238095,8.39880952 9.55238095,9.73452381 C9.55238095,11.05 8.4797619,12.1428571 7.14404762,12.1428571 Z M28.7380952,2.69166667 L23.9619048,2.69166667 C21.5130952,1.05238095 18.1940476,0.0404761905 14.3690476,0.0404761905 C10.5440476,0.0404761905 7.00238095,1.07261905 4.55357143,2.71190476 L0.0202380952,2.71190476 C0.769047619,3.58214286 1.31547619,4.75595238 1.45714286,5.56547619 C0.607142857,6.73928571 0.080952381,8.19642857 0.080952381,9.7547619 C0.080952381,13.7011905 3.27857143,16.8988095 7.225,16.8988095 C9.47142857,16.8988095 11.475,15.8666667 12.7702381,14.247619 C13.2964286,14.875 14.1869048,16.1297619 14.3690476,16.4940476 C14.3690476,16.4940476 15.4011905,14.9559524 15.9678571,14.247619 C17.2833333,15.8666667 19.2666667,16.8785714 21.5130952,16.8785714 C25.4595238,16.8785714 28.6571429,13.6809524 28.6571429,9.73452381 C28.6571429,8.15595238 28.1511905,6.71904762 27.2809524,5.5452381 C27.4428571,4.73571429 27.9892857,3.56190476 28.7380952,2.69166667 Z M7.225,15.502381 C4.04761905,15.502381 1.47738095,12.9321429 1.47738095,9.7547619 C1.47738095,6.57738095 4.04761905,4.00714286 7.225,4.00714286 C10.402381,4.00714286 12.972619,6.57738095 12.972619,9.7547619 C12.972619,12.9321429 10.402381,15.502381 7.225,15.502381 Z M7.2452381,2.59047619 C9.28928571,1.7 11.8392857,1.21428571 14.3892857,1.21428571 C16.9392857,1.21428571 19.2666667,1.7 21.3107143,2.59047619 C17.4654762,2.71190476 14.3690476,5.86904762 14.3690476,9.73452381 C14.3690476,5.80833333 11.1714286,2.61071429 7.2452381,2.59047619 Z M21.5333333,15.502381 C18.3559524,15.502381 15.7857143,12.9321429 15.7857143,9.7547619 C15.7857143,6.57738095 18.3559524,4.00714286 21.5333333,4.00714286 C24.7107143,4.00714286 27.2809524,6.57738095 27.2809524,9.7547619 C27.2809524,12.9321429 24.7107143,15.502381 21.5333333,15.502381 Z M21.5333333,6.23333333 C19.6107143,6.23333333 18.072619,7.79166667 18.072619,9.71428571 C18.072619,11.6369048 19.6309524,13.175 21.5333333,13.175 C23.4559524,13.175 24.9940476,11.6166667 24.9940476,9.71428571 C24.9940476,7.79166667 23.4357143,6.23333333 21.5333333,6.23333333 Z M21.5333333,12.122619 C20.197619,12.122619 19.125,11.05 19.125,9.71428571 C19.125,8.37857143 20.197619,7.30595238 21.5333333,7.30595238 C22.8690476,7.30595238 23.9416667,8.37857143 23.9416667,9.71428571 C23.9214286,11.05 22.8488095,12.122619 21.5333333,12.122619 Z" id="Shape"></path>
                        </g>
                    </g>
                </g>
            </g>
        </g>
    </g>
</svg>